<?xml version="1.0" encoding="utf-8"?>
<!-- Generator: Adobe Illustrator 25.2.1, SVG Export Plug-In . SVG Version: 6.00 Build 0)  -->
<svg version="1.2" baseProfile="tiny" id="Layer_1" xmlns="http://www.w3.org/2000/svg" xmlns:xlink="http://www.w3.org/1999/xlink"
	 x="0px" y="0px" viewBox="0 0 420 140" overflow="visible" xml:space="preserve">
<g>
	<path fill="#FBB044" d="M94.32,116.93c1.53-3.28,2.93-6.57,4.22-9.92c1.27-3.35,2.26-6.8,2.93-10.39c0.18,0.08,0.28,0.15,0.3,0.23
		c0.03,0.1,0.03,0.18,0.03,0.23v0.25c-0.05,1.93-0.4,3.82-1.04,5.63c-1.09,3.77-2.45,7.46-4.06,11.08c-0.15,0.39-0.3,0.74-0.45,1.12
		c-0.18,0.49-0.39,0.97-0.6,1.46c-0.74,1.66-1.19,3.39-1.37,5.2c-0.2,2.46-0.99,4.76-2.4,6.87c-0.3,0.5-0.69,0.92-1.17,1.22
		c-0.23,0.1-0.4,0.15-0.55,0.15c-0.35,0-0.54-0.25-0.59-0.79c0-0.54,0.13-1.02,0.3-1.51c0.03-0.05,0.05-0.1,0.05-0.13
		c0.54-1.51,1.17-2.98,1.88-4.42c0.28-0.6,0.55-1.22,0.84-1.83c0,0,0-0.03,0.03-0.03c0-0.03,0.03-0.08,0.03-0.08
		c0.55-0.89,0.84-1.61,0.89-2.16c0.05-0.55,0.05-0.92,0.05-1.09c0-0.79-0.08-1.58-0.25-2.4c-0.77-3.52-2.25-6.64-4.47-9.45
		c-0.44-0.54-0.87-1.09-1.32-1.63c-0.2-0.23-0.39-0.45-0.59-0.69c-0.59-0.72-1.12-1.46-1.58-2.26c-0.39-0.74-0.59-1.42-0.59-2.06
		c0-1.09,0.55-2.06,1.66-2.9c0.99-0.69,2.09-1.22,3.25-1.58c3-0.92,6.05-1.51,9.18-1.73c3.64-0.28,7.27-0.44,10.93-0.44
		c3.1,0,6.22,0.1,9.32,0.3c3.05,0.15,6.08,0.44,9.12,0.79c0.03,0,0.08,0.03,0.1,0.03c0.5,0.03,0.99,0.13,1.46,0.3
		c0.18,0.08,0.28,0.2,0.28,0.39v0.03c0,0.1-0.03,0.18-0.1,0.23c-0.08,0.05-0.15,0.08-0.25,0.1c-0.45,0.08-0.92,0.13-1.37,0.18
		c-0.03,0-0.08,0-0.1,0c-0.05,0-0.08,0-0.1-0.03c-0.03,0-0.05-0.03-0.08-0.05c-0.1-0.23-0.23-0.35-0.39-0.4
		c-0.15-0.05-0.28-0.05-0.39-0.05c-0.08,0-0.13,0-0.2,0.03h-0.3c-3.67-0.3-7.31-0.55-10.94-0.79c-2.31-0.13-4.66-0.2-6.97-0.2
		c-2.75,0-5.5,0.1-8.25,0.3c-3.49,0.18-6.92,0.74-10.29,1.68c-1.07,0.3-2.09,0.74-3.03,1.29c-0.5,0.28-0.92,0.65-1.24,1.12
		c-0.39,0.5-0.55,1.02-0.55,1.56c0,0.44,0.13,0.89,0.39,1.34c0.65,1.14,1.46,2.2,2.35,3.18c1.19,1.41,2.3,2.88,3.23,4.47
		c1.37,2.25,2.26,4.66,2.66,7.22c0.03,0.23,0.08,0.44,0.13,0.64C94.29,116.71,94.32,116.83,94.32,116.93z M90.32,129.27
		c0.84-0.65,1.56-1.71,2.15-3.08c0.59-1.37,0.87-2.51,0.87-3.42c0-0.2,0-0.39-0.03-0.55c-0.34,0.72-0.65,1.41-0.99,2.09
		C91.49,125.86,90.84,127.51,90.32,129.27z"/>
	<path fill="#FBB044" d="M120.35,111.07c-0.03,0.1-0.08,0.18-0.13,0.28c-0.72,1.68-1.56,3.25-2.46,4.76
		c-0.34,0.54-0.72,0.97-1.19,1.34c-0.23,0.18-0.45,0.25-0.64,0.25c-0.28,0-0.54-0.2-0.74-0.59c-0.2-0.45-0.3-0.94-0.3-1.42
		c0-0.13,0-0.23,0.03-0.35c0.1-1.51,0.35-2.98,0.74-4.42c0-0.03,0.03-0.05,0.03-0.08c0.03-0.1,0.05-0.23,0.08-0.39
		c0.03-0.18,0.08-0.34,0.1-0.5c0.03-0.18,0.05-0.3,0.05-0.39c0-0.08,0-0.1-0.03-0.1c0,0-0.03,0-0.05,0.03
		c-0.05,0.08-0.13,0.25-0.25,0.55c0,0.03-0.03,0.08-0.03,0.08c-0.28,0.69-0.55,1.41-0.82,2.09c-0.05,0.1-0.08,0.2-0.13,0.3
		c-0.44,1.19-0.97,2.36-1.58,3.47c-0.25,0.49-0.59,0.89-0.99,1.24c-0.3,0.28-0.6,0.4-0.87,0.4c-0.35,0-0.65-0.25-0.94-0.74
		c-0.28-0.59-0.44-1.19-0.45-1.83c0-1.17,0.13-2.35,0.4-3.49c0.05-0.25,0.1-0.49,0.15-0.74c0.05-0.25,0.08-0.44,0.08-0.55
		c0-0.13,0-0.15-0.05-0.15c-0.08,0-0.23,0.15-0.45,0.45c-0.23,0.25-0.44,0.5-0.64,0.79c-0.54,0.72-1.17,1.32-1.91,1.83
		c-0.4,0.25-0.79,0.39-1.09,0.39c-0.59,0-0.97-0.44-1.14-1.32c-0.03-0.18-0.03-0.35-0.03-0.54c0-0.54,0.1-1.09,0.34-1.68
		c0.3-0.79,0.79-1.32,1.46-1.58c0.08-0.03,0.15-0.03,0.25-0.03c0.18,0,0.34,0.05,0.45,0.15c0.18,0.15,0.28,0.34,0.28,0.54
		c0,0.1-0.03,0.2-0.08,0.3c-0.13,0.3-0.34,0.6-0.64,0.89c-0.3,0.28-0.55,0.49-0.77,0.6c-0.25,0.15-0.44,0.28-0.49,0.4
		c-0.05,0.13-0.1,0.25-0.1,0.4c0,0.08,0,0.15,0.03,0.23c0.08,0.6,0.28,0.92,0.59,0.92c0.2,0,0.45-0.13,0.74-0.35
		c1.42-1.24,2.61-2.7,3.54-4.37c0.59-1.02,1.09-2.09,1.51-3.15c0.18-0.49,0.49-1.27,0.87-2.36c0.39-1.07,0.77-2.15,1.14-3.18
		c0.37-1.04,0.69-1.81,0.92-2.25c0.1-0.2,0.2-0.39,0.34-0.55c0.05-0.08,0.1-0.13,0.15-0.15c0.05-0.03,0.1-0.03,0.13-0.03
		c0.05,0,0.1,0,0.15,0.03c0.05,0.05,0.1,0.1,0.1,0.13c0,0.05,0,0.08,0,0.1c0,0.05,0,0.1-0.03,0.15c-0.15,0.4-0.3,0.79-0.49,1.17
		c-0.77,1.76-1.58,4.04-2.46,6.92c-0.89,2.88-1.56,5.21-1.98,7.07c-0.23,1.07-0.35,2.16-0.35,3.28c0,0.23,0,0.44,0.03,0.64v0.08
		c0.03,0.18,0.05,0.34,0.1,0.49c0.05,0.15,0.15,0.28,0.34,0.34c0.08,0.03,0.13,0.03,0.2,0.03c0.1,0,0.18-0.03,0.25-0.08
		c0.13-0.1,0.23-0.2,0.34-0.35c0.03-0.03,0.05-0.05,0.08-0.08c0.6-0.74,1.09-1.58,1.46-2.46c0.82-2.09,1.78-4.68,2.9-7.84
		c1.09-3.03,2.04-5.55,2.8-7.54l0.08-0.18c0.08-0.2,0.18-0.4,0.25-0.6c0.03-0.05,0.05-0.08,0.08-0.08s0.05,0,0.08,0
		c0.05,0,0.08,0,0.13,0.03c0.05,0.03,0.08,0.05,0.1,0.08c0.02,0.03,0.05,0.08,0.05,0.1v0.05c-0.05,0.25-0.13,0.49-0.18,0.72
		c-0.25,0.99-0.6,2.25-1.04,3.74c-0.5,1.81-1.02,3.62-1.51,5.48c-0.49,1.86-0.84,3.39-1.07,4.58c-0.13,0.84-0.23,1.68-0.28,2.51
		l-0.08,0.97c0,0.08-0.03,0.18-0.03,0.25c0,0.13,0,0.25,0.03,0.39c0.03,0.25,0.13,0.39,0.25,0.39c0.1,0,0.23-0.08,0.39-0.2
		c0.34-0.3,0.64-0.65,0.89-1.07c0.64-0.99,1.22-2.06,1.76-3.23c0.15-0.35,0.34-0.69,0.49-1.02c0.05-0.1,0.08-0.18,0.13-0.28
		c0.08-0.2,0.18-0.39,0.3-0.55c0.15-0.2,0.25-0.3,0.35-0.3h0.03c0.08,0.03,0.13,0.1,0.13,0.25
		C120.47,110.68,120.47,110.9,120.35,111.07z M106.2,110.21c0.34-0.2,0.55-0.35,0.65-0.5c0.1-0.15,0.15-0.25,0.15-0.3
		c0-0.03,0-0.05-0.03-0.08c-0.03-0.08-0.08-0.1-0.13-0.1h-0.05c-0.08,0.03-0.13,0.1-0.2,0.2c-0.08,0.1-0.13,0.2-0.2,0.34
		c-0.08,0.13-0.1,0.23-0.13,0.3C106.25,110.13,106.2,110.21,106.2,110.21z"/>
	<path fill="#FBB044" d="M132.45,112.47c-0.3-0.49-0.55-0.74-0.77-0.74s-0.49,0.23-0.87,0.69c-0.54,0.64-1.04,1.27-1.51,1.96
		c-0.2,0.28-0.4,0.59-0.64,0.87c-0.03,0.05-0.08,0.1-0.1,0.15c-0.13,0.18-0.23,0.34-0.35,0.44c-0.13,0.1-0.23,0.15-0.35,0.15
		c-0.08,0-0.15,0-0.25-0.03c-0.25-0.13-0.4-0.25-0.44-0.39c-0.03-0.13-0.03-0.25-0.03-0.34c0-0.15,0.03-0.3,0.05-0.45
		c0-0.03,0.03-0.08,0.03-0.13c0.23-1.29,0.35-2.61,0.44-3.92c0-0.05,0-0.1,0.03-0.15c0-0.1,0.03-0.18,0.03-0.25s0-0.13-0.03-0.2
		c0-0.1-0.05-0.15-0.13-0.15h-0.03c-0.08,0-0.2,0.13-0.4,0.34c-0.92,1.04-1.76,2.16-2.51,3.34c-0.82,1.27-1.71,2.5-2.66,3.62
		c-0.28,0.34-0.6,0.6-0.97,0.84c-0.3,0.15-0.59,0.23-0.82,0.23c-0.5,0-0.79-0.39-0.84-1.14v-0.15c0-0.6,0.05-1.24,0.2-1.86
		c0.45-2.21,1.24-4.31,2.36-6.28c0.03-0.05,0.05-0.1,0.08-0.15c0.08-0.18,0.18-0.34,0.28-0.44c0.1-0.1,0.2-0.15,0.3-0.15
		c0.08,0,0.15,0.03,0.23,0.05c0.18,0.1,0.25,0.2,0.25,0.34c0,0.03,0,0.05-0.03,0.08c-0.03,0.15-0.1,0.3-0.2,0.45
		c-0.05,0.08-0.08,0.13-0.13,0.2c-1.07,2.01-1.83,4.12-2.26,6.33c-0.1,0.44-0.13,0.89-0.13,1.37v0.18c0.25-0.08,0.45-0.18,0.6-0.34
		c0.18-0.15,0.34-0.3,0.45-0.45c0.05-0.08,0.13-0.13,0.18-0.2c0.82-0.92,1.61-1.88,2.31-2.88c0.35-0.49,0.72-0.94,1.09-1.42
		c0.44-0.54,0.89-1.07,1.36-1.61c0.1-0.13,0.2-0.25,0.3-0.35c0.13-0.15,0.3-0.3,0.45-0.44c0.28-0.2,0.5-0.3,0.72-0.3
		c0.3,0,0.5,0.28,0.6,0.82c0.03,0.25,0.05,0.5,0.05,0.77c0,0.25-0.03,0.5-0.05,0.79c-0.03,0.15-0.03,0.3-0.03,0.45
		c-0.03,0.44-0.05,0.87-0.08,1.36c0,0.2-0.03,0.44-0.03,0.64c0.15-0.08,0.28-0.15,0.35-0.25c0.08-0.1,0.15-0.2,0.23-0.34
		c0.05-0.08,0.1-0.13,0.15-0.2l0.25-0.3c0.4-0.55,0.89-1.07,1.41-1.53c0.39-0.35,0.77-0.54,1.12-0.54c0.4,0,0.79,0.23,1.12,0.72
		c0.08,0.1,0.13,0.18,0.2,0.25c0.35,0.59,0.77,0.89,1.22,0.94c0.45,0.05,0.77,0.08,0.92,0.08c0.64,0,1.24-0.18,1.86-0.54
		c0.74-0.44,1.29-0.92,1.66-1.47h0.03l0.03-0.03c0.08-0.08,0.15-0.13,0.23-0.13h0.03c0.08,0,0.13,0.03,0.18,0.05
		c0.05,0.02,0.05,0.08,0.05,0.08c0,0.08-0.05,0.2-0.2,0.39c-0.18,0.25-0.44,0.55-0.79,0.94c-0.35,0.39-0.82,0.72-1.36,1.04
		c-0.54,0.3-1.17,0.49-1.91,0.49c-0.13,0-0.25,0-0.39-0.03C133.74,113.56,133,113.18,132.45,112.47z M123.92,105.85
		c-0.08,0.28-0.1,0.59-0.13,0.92c0,0.1-0.05,0.18-0.13,0.25s-0.18,0.1-0.3,0.1c-0.2,0-0.3-0.13-0.35-0.34
		c-0.03-0.13-0.03-0.28-0.03-0.4c0-0.28,0.05-0.55,0.15-0.82c0.23-0.55,0.44-0.84,0.64-0.84c0.03,0,0.05,0,0.08,0.03
		c0.1,0.05,0.15,0.18,0.15,0.4C124.02,105.35,123.97,105.57,123.92,105.85z"/>
	<path fill="#FBB044" d="M147.77,112.44c0.3-0.13,0.59-0.25,0.84-0.35c0.54-0.23,1.07-0.45,1.58-0.69c0.82-0.34,1.66-0.6,2.51-0.79
		c0.1-0.03,0.2-0.05,0.3-0.05c0.1,0,0.2-0.03,0.25-0.03c0.1,0,0.2,0,0.28,0.03c0.13,0.03,0.2,0.13,0.2,0.25c0,0.1-0.05,0.18-0.1,0.2
		c-0.05,0.03-0.15,0.05-0.25,0.08c-1.29,0.3-2.51,0.77-3.67,1.37c-0.55,0.25-1.12,0.5-1.71,0.74c-0.15,0.08-0.25,0.15-0.3,0.28
		c-0.05,0.13-0.08,0.25-0.08,0.39v0.03c-0.25,1.58-0.77,3.1-1.47,4.56c-1.27,2.6-3.15,4.61-5.65,6.05c-0.64,0.4-1.32,0.69-2.06,0.82
		c-0.15,0.03-0.3,0.03-0.45,0.03c-0.54,0-0.94-0.15-1.27-0.45c-0.34-0.34-0.5-0.79-0.5-1.37c0-0.13,0-0.23,0.03-0.35
		c0.18-1.19,0.65-2.25,1.46-3.15c1.88-2.31,4.12-4.21,6.69-5.68l0.65-0.39c0.54-0.28,1.04-0.59,1.58-0.89
		c0.28-0.23,0.44-0.5,0.44-0.87c0-0.25-0.05-0.5-0.2-0.82c-0.15-0.4-0.4-0.6-0.77-0.6c-0.15,0-0.34,0.05-0.54,0.13
		c-0.97,0.4-1.83,0.97-2.56,1.68l-0.18,0.1c-0.45,0.45-0.99,0.79-1.58,1.02c-0.18,0.05-0.35,0.08-0.49,0.08
		c-0.54,0-0.82-0.35-0.82-1.04c0.05-0.94,0.5-1.83,1.32-2.65c0.82-0.82,1.71-1.27,2.61-1.36H144c0.64,0,1.12,0.28,1.42,0.84
		c0.03,0.05,0.05,0.08,0.05,0.13c0.03,0.1,0.08,0.18,0.13,0.25c0.05,0.08,0.15,0.1,0.3,0.13c0.55,0,0.99,0.18,1.24,0.5
		c0.25,0.32,0.4,0.77,0.49,1.27c0,0.08,0.03,0.15,0.05,0.23C147.75,112.17,147.75,112.29,147.77,112.44z M146.07,114.23
		c-2.41,1.24-4.58,2.88-6.47,4.84l-0.2,0.2c-0.6,0.6-1.14,1.27-1.63,1.98c-0.35,0.5-0.59,1.04-0.72,1.66
		c-0.03,0.2-0.05,0.39-0.05,0.54c0,0.74,0.34,1.09,0.99,1.09c0.2,0,0.45-0.03,0.74-0.1c0.3-0.1,0.59-0.2,0.89-0.35
		c3.67-2.15,6.05-5.26,7.17-9.38c0.05-0.18,0.08-0.34,0.08-0.45c0-0.13-0.05-0.2-0.13-0.2h-0.05
		C146.53,114,146.33,114.07,146.07,114.23z M144.9,110.41c-0.25-0.3-0.45-0.5-0.59-0.55c-0.13-0.08-0.25-0.1-0.39-0.1
		c-0.08,0-0.15,0-0.23,0.03c-0.59,0.1-1.19,0.45-1.83,1.07c-0.64,0.6-1.02,1.22-1.14,1.81v0.08c0,0.18,0.08,0.28,0.23,0.28
		c0.03,0,0.08,0,0.13-0.03c0.23-0.08,0.45-0.18,0.64-0.34c0.39-0.25,0.74-0.54,1.07-0.82C143.44,111.32,144.13,110.85,144.9,110.41z
		"/>
	<path fill="#FBB044" d="M167.17,112.27c0.28-0.18,0.55-0.39,0.82-0.59c0.39-0.28,0.77-0.54,1.14-0.79
		c0.28-0.18,0.54-0.25,0.77-0.25c0.45,0,0.74,0.35,0.87,1.07c0.03,0.15,0.03,0.34,0.03,0.5c0,0.2-0.03,0.4-0.05,0.64
		c-0.03,0.3-0.05,0.6-0.05,0.97c0.23-0.13,0.6-0.44,1.17-0.84c0.49-0.35,0.97-0.74,1.51-1.12c0.54-0.39,0.97-0.65,1.36-0.87
		c0.39-0.2,0.64-0.3,0.79-0.3c0.08,0,0.13,0.03,0.18,0.05v0.03c0,0.08-0.03,0.15-0.08,0.2c-0.08,0.08-0.15,0.13-0.23,0.15
		c-0.03,0.03-0.05,0.05-0.08,0.05c-1.46,0.89-2.9,2.01-4.36,3.44c-0.4,0.34-0.72,0.77-0.89,1.24c-0.87,2.31-2.09,4.46-3.62,6.37
		c-0.45,0.64-1.02,1.14-1.68,1.58c-0.23,0.15-0.4,0.25-0.59,0.3c-0.18,0.05-0.28,0.08-0.35,0.08c-0.18,0-0.35-0.08-0.55-0.2
		c-0.2-0.18-0.3-0.39-0.3-0.59v-0.03c0-0.23,0.05-0.45,0.13-0.69c0-0.03,0.03-0.05,0.03-0.08c0.54-1.53,1.41-2.83,2.56-3.92
		c1.17-1.29,2.41-2.51,3.77-3.67c0.25-0.23,0.45-0.49,0.54-0.77c0.08-0.28,0.15-0.59,0.2-0.92c0.05-0.3,0.08-0.64,0.08-0.97
		c0-0.25-0.03-0.49-0.05-0.74c-0.05-0.25-0.18-0.4-0.35-0.4c-0.08,0-0.18,0.03-0.28,0.08c-0.25,0.18-0.5,0.35-0.74,0.55l-0.35,0.25
		c-0.18,0.13-0.35,0.28-0.54,0.4c-0.44,0.34-0.89,0.65-1.32,0.97c-0.18,0.13-0.34,0.2-0.45,0.25c-0.13,0.05-0.23,0.08-0.28,0.08
		c-0.13,0-0.28-0.05-0.45-0.13c-0.2-0.13-0.34-0.28-0.39-0.49c-0.05-0.2-0.08-0.4-0.08-0.6v-0.13c0-0.4,0.08-0.87,0.25-1.32
		c0.18-0.5,0.4-0.92,0.72-1.24c0.03-0.03,0.08-0.05,0.13-0.05c0.03,0,0.08,0,0.1,0.03c0.1,0.03,0.15,0.08,0.2,0.15
		c0.05,0.08,0.08,0.15,0.08,0.25c0,0.1-0.03,0.18-0.05,0.3c-0.03,0.08-0.08,0.18-0.1,0.28c-0.15,0.4-0.25,0.74-0.3,0.99
		c-0.05,0.25-0.08,0.44-0.08,0.54c0,0.18,0.05,0.3,0.13,0.35c0.03,0.03,0.08,0.03,0.13,0.03
		C166.4,112.73,166.7,112.57,167.17,112.27z M169.25,116.19c-1.71,1.41-3.23,2.98-4.58,4.71c-0.25,0.39-0.49,0.77-0.69,1.17
		c-0.05,0.08-0.1,0.18-0.15,0.28c-0.1,0.2-0.18,0.35-0.2,0.49c-0.02,0.13-0.05,0.2-0.05,0.25c0,0.13,0.05,0.23,0.13,0.34
		c0.13,0.08,0.23,0.13,0.35,0.13c0.1,0,0.18-0.03,0.28-0.08c0.2-0.13,0.4-0.28,0.59-0.45c0.03-0.05,0.08-0.08,0.13-0.13
		C166.91,120.97,168.31,118.72,169.25,116.19z"/>
	<path fill="#FBB044" d="M179.02,110.58c0.18,0.05,0.34,0.13,0.49,0.18c0.25,0.13,0.54,0.2,0.84,0.25c0.54,0.1,1.04,0.15,1.58,0.15
		c0.92,0,1.83-0.15,2.75-0.49c0.08-0.03,0.13-0.03,0.2-0.05c0.05,0,0.1,0,0.13,0c0.05,0,0.1,0,0.13,0.03
		c0.03,0.03,0.08,0.03,0.08,0.05v0.03c0,0.03-0.08,0.08-0.2,0.15c-0.92,0.5-1.63,0.77-2.11,0.77s-0.77,0.03-0.82,0.03
		c-0.89,0-1.78-0.1-2.7-0.3c-0.08,0-0.15-0.03-0.2-0.03c-0.13,0-0.2,0.03-0.23,0.08c-0.03,0.05-0.03,0.13-0.03,0.2s0,0.13,0.03,0.2
		c0,0.08,0,0.15,0.03,0.25v0.2c0,0.92-0.13,1.78-0.4,2.61c-0.1,0.35-0.25,0.65-0.45,0.97c-0.3,0.35-0.6,0.54-0.92,0.54h-0.13
		c-0.35-0.05-0.64-0.3-0.84-0.79c-0.18-0.5-0.28-1.02-0.28-1.53c0-0.25,0.03-0.5,0.08-0.79c0.23-1.46,0.84-2.73,1.83-3.79
		c0.34-0.34,0.72-0.59,1.14-0.74c0.13-0.05,0.25-0.08,0.39-0.08c0.18,0,0.35,0.05,0.54,0.15c0.1,0.08,0.15,0.13,0.2,0.2
		c0.05,0.08,0.05,0.13,0.05,0.2c0,0.05,0,0.1-0.03,0.13c-0.05,0.08-0.1,0.13-0.15,0.13s-0.13,0-0.18-0.03
		c-0.05,0-0.08-0.03-0.13-0.03h-0.1c-0.54,0-1.04,0.34-1.51,0.99c-0.49,0.72-0.79,1.37-0.92,2.01c-0.13,0.64-0.2,1.12-0.2,1.41
		c0,0.55,0.13,1.07,0.35,1.51c0.2-0.1,0.35-0.23,0.44-0.39c0.1-0.18,0.18-0.35,0.23-0.54c0,0,0-0.03,0.03-0.05
		c0.25-0.72,0.39-1.46,0.39-2.21c0-0.15,0-0.34-0.03-0.5c0-0.03-0.03-0.08-0.03-0.1c0-0.13-0.03-0.25-0.03-0.35
		c0-0.18,0.03-0.34,0.05-0.45c0.05-0.13,0.15-0.2,0.3-0.2C178.8,110.51,178.9,110.53,179.02,110.58z"/>
	<path fill="#FBB044" d="M194.41,111.07c-0.2,0.23-0.4,0.4-0.65,0.55c-0.1,0.08-0.2,0.15-0.3,0.23c-0.08,0.05-0.13,0.1-0.2,0.15
		c-0.45,0.39-0.94,0.74-1.46,1.04c-0.3,0.2-0.59,0.3-0.79,0.3c-0.4,0-0.64-0.35-0.69-1.04c0-0.1,0-0.18-0.03-0.25
		c0-0.23-0.03-0.35-0.05-0.35c-0.03,0-0.05,0-0.05,0c-0.05,0-0.2,0.1-0.44,0.28c-0.1,0.1-0.2,0.2-0.3,0.3c-0.1,0.1-0.2,0.2-0.34,0.3
		c-0.34,0.3-0.64,0.6-0.97,0.92c-0.2,0.23-0.44,0.44-0.64,0.64c-0.18,0.18-0.39,0.34-0.59,0.45c-0.2,0.1-0.39,0.13-0.54,0.13
		c-0.35,0-0.59-0.25-0.72-0.74c-0.03-0.13-0.03-0.28-0.03-0.4c0-0.4,0.08-0.79,0.23-1.14c0.2-0.65,0.54-1.24,0.94-1.78
		c0.1-0.13,0.18-0.2,0.28-0.23c0.08-0.05,0.15-0.05,0.23-0.05s0.15,0.03,0.25,0.08c0.13,0.1,0.2,0.18,0.2,0.28v0.03
		c-0.03,0.1-0.08,0.2-0.15,0.3l-0.08,0.1c-0.4,0.6-0.74,1.27-0.97,1.98l-0.08,0.2c-0.08,0.13-0.1,0.2-0.1,0.28c0,0.05,0,0.1,0,0.1
		c0,0.1,0.05,0.2,0.2,0.28c0.05,0.03,0.13,0.05,0.18,0.05c0.03,0,0.08,0,0.13-0.03c0.1-0.05,0.18-0.1,0.25-0.2
		c0.05-0.05,0.1-0.1,0.15-0.13c0.45-0.35,0.89-0.77,1.29-1.17c0.18-0.2,0.39-0.39,0.55-0.59l0.13-0.13c0.08-0.1,0.18-0.18,0.25-0.25
		c0.1-0.08,0.18-0.18,0.28-0.28c0.13-0.13,0.23-0.23,0.34-0.3c0.1-0.08,0.23-0.1,0.34-0.1c0.05,0,0.1,0,0.18,0.03
		c0.2,0.08,0.34,0.18,0.35,0.3c0.03,0.13,0.05,0.28,0.05,0.4v0.45c0.03,0.3,0.13,0.45,0.3,0.45c0.1,0,0.2-0.05,0.34-0.13
		c0.35-0.23,0.69-0.45,1.04-0.69l0.92-0.59c0.03-0.03,0.05-0.05,0.1-0.08c0.08-0.05,0.18-0.13,0.28-0.18c0.1-0.05,0.2-0.1,0.28-0.13
		c0.13-0.03,0.23-0.05,0.3-0.05c0.05,0,0.08,0,0.08,0.03C194.64,110.75,194.56,110.86,194.41,111.07z"/>
	<path fill="#FBB044" d="M204.75,111c-0.25,0.4-0.54,0.79-0.77,1.14c-0.97,1.53-2.04,3-3.25,4.42c-0.25,0.34-0.59,0.6-0.94,0.84
		c-0.23,0.13-0.44,0.18-0.6,0.18c-0.35,0-0.59-0.25-0.72-0.79c-0.05-0.3-0.08-0.6-0.08-0.92c0-0.39,0.03-0.74,0.1-1.12l0.03-0.25
		c0.05-0.4,0.1-0.84,0.1-1.24v-0.08c0-0.39-0.08-0.65-0.2-0.84c-0.13-0.18-0.4-0.34-0.82-0.45c-0.1-0.03-0.2-0.05-0.34-0.08
		c-0.39-0.1-0.74-0.2-1.07-0.35c-0.92-0.44-1.41-1.14-1.41-2.11c0-0.1,0-0.2,0.03-0.3c0.13-1.24,0.64-2.31,1.58-3.15
		c0.2-0.18,0.45-0.34,0.72-0.44c0.15-0.05,0.28-0.08,0.4-0.08c0.4,0,0.65,0.23,0.79,0.72c0.03,0.15,0.05,0.34,0.05,0.5
		c0,0.2-0.03,0.44-0.08,0.64c-0.2,1.02-0.6,1.96-1.19,2.83c-0.03,0.05-0.08,0.1-0.13,0.13c-0.05,0.08-0.1,0.15-0.15,0.23
		c-0.05,0.08-0.08,0.18-0.08,0.3c0.25,0.13,0.5,0.23,0.79,0.3c0.05,0,0.1,0.03,0.15,0.05c1.14,0.25,1.71,0.92,1.71,1.98
		c0,0.15,0,0.34-0.03,0.54c-0.03,0.28-0.08,0.59-0.13,0.87c-0.05,0.35-0.1,0.69-0.13,1.02c-0.03,0.2-0.03,0.39-0.03,0.59
		c0,0.13,0,0.25,0.03,0.39c0.03,0.25,0.13,0.4,0.25,0.4c0.08,0,0.18-0.05,0.3-0.13c0.44-0.4,0.87-0.84,1.24-1.29
		c1.07-1.27,2.04-2.56,2.98-3.94c0.05-0.08,0.1-0.15,0.15-0.23c0.08-0.13,0.15-0.25,0.25-0.39c0.18-0.2,0.34-0.3,0.4-0.3h0.03
		c0.05,0,0.08,0.08,0.08,0.15C204.85,110.8,204.81,110.9,204.75,111z M196.22,110.36c0.92-1.07,1.46-2.3,1.61-3.69v-0.13l0.03-0.15
		l-0.03-0.15c-0.03-0.1-0.08-0.18-0.2-0.23c-0.08-0.03-0.13-0.05-0.2-0.05c-0.08,0-0.1,0-0.15,0.03c-0.13,0.05-0.23,0.13-0.3,0.2
		c-0.92,0.79-1.37,1.76-1.37,2.93c0,0.13,0,0.23,0.03,0.35c0,0.18,0.05,0.35,0.13,0.5C195.8,110.13,195.98,110.28,196.22,110.36z"/>
	<path fill="#FBB044" d="M218.46,112.32c-0.13,0.05-0.23,0.13-0.34,0.23c-0.1,0.1-0.18,0.28-0.25,0.5c-0.05,0.25-0.2,0.54-0.4,0.82
		c-0.23,0.28-0.45,0.49-0.69,0.6c-0.25,0.13-0.49,0.2-0.65,0.2c-0.15,0-0.25-0.05-0.35-0.15c-0.08-0.1-0.1-0.2-0.1-0.3
		c0-0.15,0.05-0.35,0.15-0.55c0.18-0.39,0.54-0.74,1.07-1.04c0.25-0.13,0.39-0.3,0.39-0.54c0-0.1-0.03-0.2-0.08-0.34l-0.03-0.08
		c-0.2-0.44-0.39-0.87-0.54-1.29c-0.05-0.15-0.08-0.3-0.08-0.44c0-0.25,0.08-0.45,0.23-0.69c0.23-0.34,0.55-0.49,0.99-0.5
		c0.13,0,0.25,0.05,0.4,0.13s0.2,0.2,0.23,0.34c0,0.08-0.03,0.13-0.08,0.15c-0.05,0.03-0.1,0.05-0.15,0.05
		c-0.03,0-0.05,0.03-0.08,0.03c-0.08,0-0.15-0.03-0.2-0.03c-0.25,0-0.4,0.08-0.45,0.23c-0.03,0.08-0.05,0.18-0.05,0.3
		c0,0.13,0.03,0.25,0.05,0.4c0.08,0.28,0.18,0.54,0.28,0.79c0.05,0.13,0.1,0.23,0.13,0.34c0.05,0.13,0.08,0.23,0.1,0.3
		c0.03,0.05,0.08,0.1,0.15,0.1c0.05,0,0.15-0.03,0.28-0.05c0.03,0,0.08,0,0.13-0.03c1.02-0.2,2.04-0.54,3.03-1.02
		c0.15-0.08,0.28-0.1,0.35-0.1h0.02c0.03,0,0.03,0.03,0.03,0.05c0,0.03,0,0.05-0.03,0.08c-0.1,0.15-0.39,0.35-0.87,0.55
		c-0.45,0.2-0.97,0.4-1.46,0.59C219.08,112.12,218.69,112.24,218.46,112.32z M217.22,113.11c-0.39,0.15-0.65,0.35-0.82,0.64
		c0,0.1,0.05,0.15,0.15,0.15c0.05,0,0.1,0,0.15-0.03C216.96,113.8,217.11,113.55,217.22,113.11z"/>
	<path fill="#FBB044" d="M225.26,110.58c0.18,0.05,0.34,0.13,0.49,0.18c0.25,0.13,0.54,0.2,0.84,0.25c0.54,0.1,1.04,0.15,1.58,0.15
		c0.92,0,1.83-0.15,2.75-0.49c0.08-0.03,0.13-0.03,0.2-0.05c0.05,0,0.1,0,0.13,0c0.05,0,0.1,0,0.13,0.03
		c0.03,0.03,0.08,0.03,0.08,0.05v0.03c0,0.03-0.08,0.08-0.2,0.15c-0.92,0.5-1.63,0.77-2.11,0.77s-0.77,0.03-0.82,0.03
		c-0.89,0-1.78-0.1-2.7-0.3c-0.08,0-0.15-0.03-0.2-0.03c-0.13,0-0.2,0.03-0.23,0.08c-0.03,0.05-0.03,0.13-0.03,0.2s0,0.13,0.03,0.2
		c0,0.08,0,0.15,0.03,0.25v0.2c0,0.92-0.13,1.78-0.4,2.61c-0.1,0.35-0.25,0.65-0.45,0.97c-0.3,0.35-0.6,0.54-0.92,0.54h-0.13
		c-0.35-0.05-0.64-0.3-0.84-0.79c-0.18-0.5-0.28-1.02-0.28-1.53c0-0.25,0.03-0.5,0.08-0.79c0.23-1.46,0.84-2.73,1.83-3.79
		c0.34-0.34,0.72-0.59,1.14-0.74c0.13-0.05,0.25-0.08,0.39-0.08c0.18,0,0.35,0.05,0.54,0.15c0.1,0.08,0.15,0.13,0.2,0.2
		c0.05,0.08,0.05,0.13,0.05,0.2c0,0.05,0,0.1-0.03,0.13c-0.05,0.08-0.1,0.13-0.15,0.13s-0.13,0-0.18-0.03
		c-0.05,0-0.08-0.03-0.13-0.03h-0.1c-0.54,0-1.04,0.34-1.51,0.99c-0.49,0.72-0.79,1.37-0.92,2.01c-0.13,0.64-0.2,1.12-0.2,1.41
		c0,0.55,0.13,1.07,0.35,1.51c0.2-0.1,0.35-0.23,0.44-0.39c0.1-0.18,0.18-0.35,0.23-0.54c0,0,0-0.03,0.03-0.05
		c0.25-0.72,0.39-1.46,0.39-2.21c0-0.15,0-0.34-0.03-0.5c0-0.03-0.03-0.08-0.03-0.1c0-0.13-0.03-0.25-0.03-0.35
		c0-0.18,0.03-0.34,0.05-0.45c0.05-0.13,0.15-0.2,0.3-0.2C225.01,110.51,225.13,110.53,225.26,110.58z"/>
	<path fill="#FBB044" d="M248.86,111.89c-0.72,2.65-1.83,5.31-3.34,8.01c-0.35,0.64-0.79,1.17-1.36,1.61
		c-0.34,0.23-0.6,0.34-0.84,0.34c-0.44,0-0.79-0.34-1.02-0.97c-0.18-0.65-0.25-1.32-0.25-2.01c0-0.28,0.03-0.55,0.05-0.84
		c0-0.08,0-0.13,0.03-0.2c0.13-2.85,0.45-5.65,1.02-8.43c0.25-1.14,0.5-2.3,0.82-3.44c0.13-0.5,0.25-0.99,0.35-1.51
		c0-0.03,0.03-0.05,0.03-0.08c0.03-0.08,0.03-0.13,0.05-0.18c0-0.05,0-0.08,0-0.1c0-0.08-0.03-0.15-0.05-0.23
		c-0.2,0.25-0.35,0.54-0.45,0.84c-0.05,0.13-0.1,0.23-0.13,0.34c-0.08,0.15-0.15,0.34-0.25,0.5c-0.87,1.96-1.93,3.79-3.15,5.5
		c-0.54,0.72-1.17,1.27-1.96,1.68c-0.3,0.15-0.55,0.23-0.79,0.23c-0.54,0-0.89-0.4-1.04-1.17c-0.05-0.23-0.1-0.45-0.15-0.69
		c-0.03-0.1-0.05-0.2-0.08-0.3c-0.25,0.2-0.45,0.44-0.59,0.69c-0.08,0.13-0.18,0.25-0.28,0.39c-0.05,0.08-0.13,0.13-0.18,0.2
		c-0.25,0.35-0.59,0.64-0.97,0.87c-0.25,0.1-0.45,0.15-0.69,0.15c-0.18,0-0.34-0.05-0.5-0.13c-0.34-0.18-0.54-0.54-0.6-1.02
		c-0.03-0.2-0.05-0.4-0.05-0.6c0-0.5,0.1-0.99,0.3-1.46c0.08-0.13,0.15-0.2,0.28-0.2c0.05,0,0.1,0,0.15,0.03
		c0.08,0.03,0.13,0.08,0.15,0.15c0.03,0.08,0.03,0.13,0.03,0.2c0,0.2-0.03,0.4-0.03,0.64c-0.03,0.25-0.03,0.5-0.03,0.74
		c0,0.1,0,0.2,0.03,0.3s0.08,0.2,0.2,0.25c0.05,0.03,0.1,0.03,0.15,0.03c0.05,0,0.08,0,0.13-0.03c0.08-0.03,0.15-0.08,0.23-0.15
		l0.05-0.05c0.45-0.4,0.87-0.89,1.24-1.41c0.03-0.03,0.08-0.08,0.08-0.13c0.15-0.23,0.3-0.4,0.5-0.59c0.15-0.13,0.3-0.2,0.45-0.2
		c0.05,0,0.13,0,0.18,0.03c0.2,0.05,0.34,0.23,0.4,0.54c0.05,0.28,0.1,0.59,0.13,0.89l0.1,0.69c0.05,0.4,0.2,0.6,0.44,0.6
		c0.13,0,0.28-0.05,0.45-0.15c0.49-0.25,0.92-0.6,1.29-1.04c1.07-1.27,1.98-2.66,2.73-4.21c1.78-3.39,3.23-6.9,4.41-10.54
		c0.03-0.05,0.05-0.1,0.05-0.13c0-0.1,0.03-0.18,0.08-0.25c0.05-0.13,0.13-0.2,0.2-0.25c0.08-0.05,0.13-0.08,0.2-0.08
		c0.07,0,0.13,0.03,0.2,0.05c0.1,0.05,0.13,0.13,0.13,0.23s-0.03,0.2-0.05,0.3l-0.03,0.03c-0.6,1.83-1.12,3.72-1.56,5.6l-0.35,1.42
		c-0.77,3.03-1.32,6.12-1.68,9.23c-0.13,0.92-0.25,1.83-0.4,2.73c-0.08,0.45-0.15,0.92-0.23,1.34c-0.1,0.84-0.15,1.68-0.15,2.51
		c0,0.34,0,0.64,0.03,0.97c0,0.28,0.05,0.55,0.18,0.84c0.08,0.18,0.2,0.28,0.34,0.28c0.08,0,0.18-0.03,0.25-0.08
		c0.25-0.18,0.49-0.39,0.69-0.64c0.82-1.02,1.47-2.11,1.96-3.34c0.89-1.96,1.58-3.79,2.09-5.5c0.1-0.3,0.18-0.49,0.23-0.49
		c0.05,0,0.1,0,0.1,0c0.08,0,0.13,0.08,0.18,0.23c0,0.05,0.03,0.13,0.03,0.18C248.91,111.55,248.87,111.7,248.86,111.89z"/>
	<path fill="#FBB044" d="M270.24,99.49c0.65,0,1.32-0.03,1.98-0.08c0.84-0.05,1.68-0.08,2.51-0.08c1.78,0,3.54,0.13,5.25,0.4
		c0,0.13-0.03,0.23-0.05,0.28c-0.05,0.05-0.1,0.08-0.15,0.08h-1.46c-0.82,0-1.63,0-2.41-0.03h-0.4c-1.51,0-3,0.05-4.47,0.18
		c-0.3,0.03-0.54,0.05-0.69,0.08c-0.13,0.05-0.23,0.13-0.3,0.25c-0.08,0.13-0.1,0.34-0.13,0.64c-0.18,1.09-0.35,2.2-0.54,3.28
		l-0.4,2.61c-0.23,1.51-0.45,2.98-0.69,4.47c-0.5,3.64-1.12,7.26-1.88,10.88c-0.08,0.35-0.2,0.69-0.34,0.99
		c-0.03,0.08-0.08,0.13-0.15,0.13h-0.05c-0.05,0-0.13,0-0.18-0.03c-0.03-0.03-0.08-0.05-0.1-0.1c-0.03-0.05-0.05-0.1-0.05-0.13
		v-0.13c0-0.13,0-0.25,0.03-0.39c0.4-2.04,0.74-4.07,0.99-6.13c0.13-1.04,0.28-2.09,0.44-3.1c0.44-2.93,0.94-5.83,1.51-8.7
		c0.03-0.13,0.05-0.28,0.05-0.44c0-0.08,0-0.13,0.03-0.2c-0.13,0-0.23,0.03-0.28,0.1c-0.05,0.05-0.08,0.13-0.08,0.2
		c0,0.03-0.03,0.08-0.05,0.1c-1.29,2.93-2.66,5.8-4.16,8.65c-0.25,0.45-0.35,0.94-0.35,1.46v0.13c0,1.47-0.44,2.83-1.29,4.04
		c-0.25,0.4-0.6,0.72-1.04,0.89c-0.13,0.03-0.23,0.05-0.34,0.05c-0.34,0-0.49-0.23-0.49-0.65c0.03-0.39,0.13-0.74,0.3-1.07
		c0-0.05,0.03-0.1,0.05-0.13c0.4-0.99,0.87-1.96,1.42-2.85c0.2-0.34,0.3-0.65,0.3-0.99s-0.1-0.65-0.34-0.99
		c-0.1-0.18-0.2-0.35-0.34-0.54c-0.15-0.25-0.3-0.49-0.45-0.74c-0.25-0.49-0.35-0.94-0.35-1.41c0-0.4,0.1-0.84,0.28-1.24
		c0.4-0.89,1.09-1.46,2.06-1.71c0.08-0.03,0.15-0.03,0.25-0.03c0.15,0,0.3,0.05,0.45,0.13c0.1,0.08,0.18,0.15,0.2,0.25
		c0.03,0.05,0.03,0.13,0.03,0.18c0,0.05,0,0.1-0.03,0.13c0,0.08-0.05,0.1-0.13,0.13c-0.05,0-0.1,0.03-0.15,0.03h-0.08l-0.1-0.03
		l-0.08,0.03c-0.55,0.08-0.99,0.4-1.32,1.02c-0.18,0.3-0.25,0.6-0.25,0.92c0,0.28,0.08,0.55,0.23,0.87c0.18,0.34,0.39,0.65,0.6,1.04
		c0.05,0.08,0.08,0.13,0.13,0.2c0.1,0.13,0.18,0.28,0.28,0.45c0.5-1.07,1.04-2.11,1.58-3.13c1.61-2.9,2.98-5.98,4.16-9.18
		c-1.78,0.03-3.47,0.28-5.04,0.72c-0.23,0.05-0.39,0.18-0.5,0.35c-0.08,0.15-0.18,0.23-0.28,0.23c-0.08,0-0.15-0.03-0.23-0.08
		c-0.1-0.1-0.15-0.2-0.15-0.35c0-0.08,0-0.15,0.03-0.23c0.13-0.28,0.3-0.49,0.59-0.59c0.45-0.23,0.92-0.35,1.42-0.44
		c0.28-0.03,0.59-0.08,0.89-0.1c0.94-0.13,1.88-0.23,2.83-0.3c0.59-0.03,0.92-0.3,0.99-0.84c0.28-1.22,0.59-2.41,0.92-3.62
		c0-0.05,0.03-0.1,0.03-0.18c0.03-0.13,0.08-0.25,0.13-0.39c0.05-0.1,0.13-0.15,0.23-0.15c0.03,0,0.08,0,0.1,0.03
		c0.15,0.05,0.25,0.13,0.25,0.25c0,0.12-0.05,0.25-0.1,0.39c-0.03,0.08-0.05,0.13-0.08,0.18C270.69,96.64,270.41,98.04,270.24,99.49
		z"/>
	<path fill="#FBB044" d="M275.79,110.58c0.18,0.05,0.34,0.13,0.49,0.18c0.25,0.13,0.54,0.2,0.84,0.25c0.54,0.1,1.04,0.15,1.58,0.15
		c0.92,0,1.83-0.15,2.75-0.49c0.08-0.03,0.13-0.03,0.2-0.05c0.05,0,0.1,0,0.13,0c0.05,0,0.1,0,0.13,0.03
		c0.03,0.03,0.08,0.03,0.08,0.05v0.03c0,0.03-0.08,0.08-0.2,0.15c-0.92,0.5-1.63,0.77-2.11,0.77s-0.77,0.03-0.82,0.03
		c-0.89,0-1.78-0.1-2.7-0.3c-0.08,0-0.15-0.03-0.2-0.03c-0.13,0-0.2,0.03-0.23,0.08c-0.03,0.05-0.03,0.13-0.03,0.2s0,0.13,0.03,0.2
		c0,0.08,0,0.15,0.03,0.25v0.2c0,0.92-0.13,1.78-0.4,2.61c-0.1,0.35-0.25,0.65-0.45,0.97c-0.3,0.35-0.6,0.54-0.92,0.54h-0.13
		c-0.35-0.05-0.64-0.3-0.84-0.79c-0.18-0.5-0.28-1.02-0.28-1.53c0-0.25,0.03-0.5,0.08-0.79c0.23-1.46,0.84-2.73,1.83-3.79
		c0.34-0.34,0.72-0.59,1.14-0.74c0.13-0.05,0.25-0.08,0.39-0.08c0.18,0,0.35,0.05,0.54,0.15c0.1,0.08,0.15,0.13,0.2,0.2
		c0.05,0.08,0.05,0.13,0.05,0.2c0,0.05,0,0.1-0.03,0.13c-0.05,0.08-0.1,0.13-0.15,0.13c-0.05,0-0.13,0-0.18-0.03
		c-0.05,0-0.08-0.03-0.13-0.03h-0.1c-0.54,0-1.04,0.34-1.51,0.99c-0.49,0.72-0.79,1.37-0.92,2.01c-0.13,0.64-0.2,1.12-0.2,1.41
		c0,0.55,0.13,1.07,0.35,1.51c0.2-0.1,0.35-0.23,0.44-0.39c0.1-0.18,0.18-0.35,0.23-0.54c0,0,0-0.03,0.03-0.05
		c0.25-0.72,0.39-1.46,0.39-2.21c0-0.15,0-0.34-0.03-0.5c0-0.03-0.03-0.08-0.03-0.1c0-0.13-0.03-0.25-0.03-0.35
		c0-0.18,0.03-0.34,0.05-0.45c0.05-0.13,0.15-0.2,0.3-0.2C275.52,110.51,275.65,110.53,275.79,110.58z"/>
	<path fill="#FBB044" d="M292.14,111c-0.25,0.4-0.54,0.79-0.77,1.14c-0.97,1.53-2.04,3-3.25,4.42c-0.25,0.34-0.59,0.6-0.94,0.84
		c-0.23,0.13-0.44,0.18-0.6,0.18c-0.35,0-0.59-0.25-0.72-0.79c-0.05-0.3-0.08-0.6-0.08-0.92c0-0.39,0.03-0.74,0.1-1.12l0.03-0.25
		c0.05-0.4,0.1-0.84,0.1-1.24v-0.08c0-0.39-0.08-0.65-0.2-0.84c-0.13-0.18-0.4-0.34-0.82-0.45c-0.1-0.03-0.2-0.05-0.34-0.08
		c-0.39-0.1-0.74-0.2-1.07-0.35c-0.92-0.44-1.41-1.14-1.41-2.11c0-0.1,0-0.2,0.03-0.3c0.13-1.24,0.64-2.31,1.58-3.15
		c0.2-0.18,0.45-0.34,0.72-0.44c0.15-0.05,0.28-0.08,0.4-0.08c0.4,0,0.65,0.23,0.79,0.72c0.03,0.15,0.05,0.34,0.05,0.5
		c0,0.2-0.03,0.44-0.08,0.64c-0.2,1.02-0.6,1.96-1.19,2.83c-0.03,0.05-0.08,0.1-0.13,0.13c-0.05,0.08-0.1,0.15-0.15,0.23
		c-0.05,0.08-0.08,0.18-0.08,0.3c0.25,0.13,0.5,0.23,0.79,0.3c0.05,0,0.1,0.03,0.15,0.05c1.14,0.25,1.71,0.92,1.71,1.98
		c0,0.15,0,0.34-0.03,0.54c-0.03,0.28-0.08,0.59-0.13,0.87c-0.05,0.35-0.1,0.69-0.13,1.02c-0.03,0.2-0.03,0.39-0.03,0.59
		c0,0.13,0,0.25,0.03,0.39c0.03,0.25,0.13,0.4,0.25,0.4c0.08,0,0.18-0.05,0.3-0.13c0.44-0.4,0.87-0.84,1.24-1.29
		c1.07-1.27,2.04-2.56,2.98-3.94c0.05-0.08,0.1-0.15,0.15-0.23c0.08-0.13,0.15-0.25,0.25-0.39c0.18-0.2,0.34-0.3,0.4-0.3h0.05
		c0.05,0,0.08,0.08,0.08,0.15C292.24,110.8,292.23,110.9,292.14,111z M283.61,110.36c0.92-1.07,1.46-2.3,1.61-3.69v-0.13l0.03-0.15
		l-0.03-0.15c-0.03-0.1-0.08-0.18-0.2-0.23c-0.08-0.03-0.13-0.05-0.2-0.05c-0.08,0-0.1,0-0.15,0.03c-0.13,0.05-0.23,0.13-0.3,0.2
		c-0.92,0.79-1.37,1.76-1.37,2.93c0,0.13,0,0.23,0.03,0.35c0,0.18,0.05,0.35,0.13,0.5C283.21,110.13,283.4,110.28,283.61,110.36z"/>
	<path fill="#FBB044" d="M295.16,112.27c0.28-0.18,0.55-0.39,0.82-0.59c0.39-0.28,0.77-0.54,1.14-0.79
		c0.28-0.18,0.54-0.25,0.77-0.25c0.45,0,0.74,0.35,0.87,1.07c0.03,0.15,0.03,0.34,0.03,0.5c0,0.2-0.03,0.4-0.05,0.64
		c-0.03,0.3-0.05,0.6-0.05,0.97c0.23-0.13,0.6-0.44,1.17-0.84c0.49-0.35,0.97-0.74,1.51-1.12c0.54-0.39,0.97-0.65,1.34-0.87
		c0.35-0.2,0.64-0.3,0.79-0.3c0.08,0,0.13,0.03,0.18,0.05v0.03c0,0.08-0.03,0.15-0.08,0.2c-0.08,0.08-0.15,0.13-0.23,0.15
		c-0.03,0.03-0.05,0.05-0.08,0.05c-1.46,0.89-2.9,2.01-4.36,3.44c-0.4,0.34-0.72,0.77-0.89,1.24c-0.87,2.31-2.09,4.46-3.62,6.37
		c-0.45,0.64-1.02,1.14-1.68,1.58c-0.23,0.15-0.4,0.25-0.59,0.3c-0.18,0.05-0.28,0.08-0.35,0.08c-0.18,0-0.35-0.08-0.55-0.2
		c-0.2-0.18-0.3-0.39-0.3-0.59v-0.03c0-0.23,0.05-0.45,0.13-0.69c0-0.03,0.03-0.05,0.03-0.08c0.54-1.53,1.41-2.83,2.56-3.92
		c1.17-1.29,2.41-2.51,3.77-3.67c0.25-0.23,0.45-0.49,0.54-0.77c0.08-0.28,0.15-0.59,0.2-0.92c0.05-0.3,0.08-0.64,0.08-0.97
		c0-0.25-0.03-0.49-0.05-0.74c-0.05-0.25-0.18-0.4-0.35-0.4c-0.08,0-0.18,0.03-0.28,0.08c-0.25,0.18-0.5,0.35-0.74,0.55l-0.35,0.25
		c-0.18,0.13-0.35,0.28-0.54,0.4c-0.44,0.34-0.89,0.65-1.32,0.97c-0.18,0.13-0.34,0.2-0.45,0.25c-0.13,0.05-0.23,0.08-0.28,0.08
		c-0.13,0-0.28-0.05-0.45-0.13c-0.2-0.13-0.34-0.28-0.39-0.49c-0.05-0.2-0.08-0.4-0.08-0.6v-0.13c0-0.4,0.08-0.87,0.25-1.32
		c0.18-0.5,0.4-0.92,0.72-1.24c0.03-0.03,0.08-0.05,0.13-0.05c0.03,0,0.08,0,0.1,0.03c0.1,0.03,0.15,0.08,0.2,0.15
		c0.05,0.07,0.08,0.15,0.08,0.25c0,0.1-0.03,0.18-0.05,0.3c-0.03,0.08-0.08,0.18-0.1,0.28c-0.15,0.4-0.25,0.74-0.3,0.99
		c-0.05,0.25-0.08,0.44-0.08,0.54c0,0.18,0.05,0.3,0.13,0.35c0.03,0.03,0.08,0.03,0.13,0.03
		C294.39,112.73,294.73,112.57,295.16,112.27z M297.24,116.19c-1.71,1.41-3.23,2.98-4.58,4.71c-0.25,0.39-0.49,0.77-0.69,1.17
		c-0.05,0.08-0.1,0.18-0.15,0.28c-0.1,0.2-0.18,0.35-0.2,0.49s-0.05,0.2-0.05,0.25c0,0.13,0.05,0.23,0.13,0.34
		c0.13,0.08,0.23,0.13,0.35,0.13c0.1,0,0.18-0.03,0.28-0.08c0.2-0.13,0.4-0.28,0.59-0.45c0.03-0.05,0.08-0.08,0.13-0.13
		C294.89,120.97,296.3,118.72,297.24,116.19z"/>
</g>
<g>
	<path fill="#FBB044" d="M3.76,80.2c1.63-0.5,3.18-1.29,4.66-2.41c1.46-1.09,2.36-2.45,2.73-3.99V12.21
		c-0.35-1.58-1.27-2.9-2.73-4.02c-1.46-1.09-3-1.86-4.66-2.3h23.31c-1.63,0.44-3.18,1.19-4.61,2.3c-1.42,1.09-2.35,2.45-2.78,4.02
		v66.92h9.18c2.3,0,4.68-0.44,7.21-1.27c2.51-0.87,5.01-1.96,7.49-3.3c2.46-1.34,4.79-2.83,6.95-4.42c2.16-1.61,4.06-3.18,5.63-4.76
		l-2.46,14.87H3.76V80.2z"/>
	<path fill="#FBB044" d="M128.73,6.22c-1.63,0.44-3.18,1.19-4.66,2.3c-1.46,1.09-2.4,2.46-2.83,4.12v36.55
		c0,5.63-0.64,10.49-1.88,14.58c-1.24,4.11-3,7.46-5.25,10.11c-2.25,2.65-4.94,4.58-8.06,5.83c-3.13,1.24-6.59,1.88-10.36,1.88
		c-3.77,0-7.27-0.59-10.54-1.76c-3.23-1.17-6.03-3.05-8.4-5.6c-2.35-2.56-4.21-5.9-5.55-10.06c-1.36-4.12-2.04-9.12-2.04-14.97
		V12.64c-0.35-1.63-1.27-3-2.73-4.12c-1.46-1.09-3-1.86-4.66-2.3h23.31c-1.63,0.44-3.18,1.19-4.61,2.3
		c-1.42,1.09-2.35,2.46-2.78,4.12v36.55c0,5.2,0.5,9.72,1.51,13.57s2.41,7.02,4.22,9.52c1.81,2.5,3.99,4.36,6.52,5.55
		c2.51,1.22,5.31,1.81,8.4,1.81c2.93,0,5.73-0.55,8.4-1.71c2.66-1.14,5.01-2.95,7.01-5.4c1.99-2.45,3.59-5.63,4.76-9.47
		c1.17-3.84,1.76-8.48,1.76-13.89V12.64c-0.44-1.63-1.37-3-2.83-4.12c-1.46-1.09-3-1.86-4.66-2.3
		C112.79,6.22,128.73,6.22,128.73,6.22z"/>
	<path fill="#FBB044" d="M182.19,80.2c1.14-0.35,2.09-0.94,2.83-1.76c0.74-0.82,1.12-1.83,1.12-3.05c0-0.72-0.08-1.24-0.2-1.61
		l-16.04-27.59l-18.92,27.59c-0.28,0.64-0.44,1.36-0.44,2.15c0,0.99,0.34,1.86,1.02,2.61c0.69,0.74,1.51,1.29,2.51,1.66h-16.14
		c0.99-0.2,2.04-0.55,3.15-1.07c1.09-0.5,2.25-1.07,3.35-1.71c1.14-0.64,2.25-1.36,3.25-2.15c1.04-0.79,1.91-1.58,2.61-2.35
		l18.92-27.7l-18.6-32.08c-0.64-0.79-1.46-1.58-2.4-2.35c-0.97-0.79-1.98-1.51-3.05-2.15c-1.07-0.64-2.15-1.22-3.2-1.71
		c-1.07-0.5-2.06-0.87-3-1.07h24.79c-1.14,0.35-2.11,0.92-2.88,1.71c-0.79,0.79-1.17,1.78-1.17,3c0,0.5,0.1,1.07,0.34,1.71
		l14.53,25.02l17.11-25.02c0.28-0.64,0.44-1.36,0.44-2.15c0-0.99-0.34-1.88-1.02-2.61c-0.69-0.74-1.53-1.29-2.51-1.66h16.14
		c-0.92,0.2-1.96,0.55-3.1,1.07c-1.14,0.5-2.3,1.07-3.42,1.71c-1.14,0.64-2.21,1.36-3.2,2.15c-0.99,0.79-1.88,1.58-2.66,2.35
		l-17.11,25.22l19.34,33.47c0.64,0.79,1.47,1.63,2.51,2.51c1.04,0.89,2.11,1.73,3.25,2.51c1.14,0.79,2.3,1.47,3.42,2.09
		c1.14,0.6,2.16,1.02,3.1,1.22h-24.69v0.02H182.19z"/>
	<path fill="#FBB044" d="M233.4,73.78c0.44,1.63,1.36,3,2.78,4.12c1.42,1.09,2.95,1.88,4.61,2.3h-23.31
		c1.63-0.44,3.18-1.19,4.66-2.3c1.46-1.09,2.36-2.46,2.73-4.12V12.31c-0.35-1.63-1.27-3-2.73-4.12c-1.46-1.09-3-1.86-4.66-2.3h23.31
		c-1.63,0.44-3.18,1.19-4.61,2.3c-1.42,1.09-2.35,2.46-2.78,4.12V73.78z"/>
	<path fill="#FBB044" d="M287.59,81.27c-2.15,0-3.84-0.54-5.14-1.61c-1.27-0.87-2.3-1.96-3.05-3.3c-0.77-1.36-1.12-2.85-1.12-4.47
		c0-1.78,0.49-3.67,1.46-5.68c0.97-1.98,2.25-4.17,3.79-6.52l-3-5.14l-21.25-38.6V72.6c0.44,1.58,1.37,3.13,2.83,4.66
		c1.46,1.53,3,2.51,4.66,2.95h-15.94c1.63-0.44,3.18-1.41,4.66-2.95c1.46-1.53,2.36-3.08,2.73-4.66V13.91
		c-0.2-0.79-0.55-1.61-1.02-2.46c-0.45-0.87-1.04-1.66-1.71-2.41c-0.69-0.74-1.42-1.41-2.25-1.98c-0.82-0.55-1.63-0.97-2.41-1.17
		h11.66l25.66,46.71l30.37-46.71h13.36c-1.63,0.44-3.18,1.19-4.66,2.3c-1.46,1.09-2.4,2.46-2.83,4.12v61.47
		c0.44,1.63,1.37,3,2.83,4.12c1.46,1.09,3,1.88,4.66,2.3h-23.41c1.63-0.44,3.18-1.19,4.66-2.3c1.46-1.09,2.41-2.46,2.83-4.12V11.77
		l-27.27,41.9c2.3,3.99,4.22,7.41,5.83,10.21c1.61,2.83,2.41,5.48,2.41,7.96c0,2.56-0.89,4.79-2.66,6.62
		C292.46,80.3,290.23,81.27,287.59,81.27z M284.82,78.59c1.51,0,2.7-0.54,3.59-1.61c0.89-1.07,1.32-2.31,1.32-3.74
		c0-1.42-0.55-3.2-1.66-5.35c-1.11-2.15-2.45-4.52-4.02-7.16c-1.42,2.3-2.56,4.32-3.42,6.17c-0.87,1.81-1.27,3.47-1.27,4.96
		c0,1.98,0.55,3.62,1.66,4.86C282.12,77.95,283.4,78.59,284.82,78.59z"/>
	<path fill="#FBB044" d="M391.83,80.2c1.36-0.35,2.5-1.04,3.42-2.04c0.92-0.99,1.41-2.21,1.41-3.64v-0.74l-6.42-15.7h-32.61
		l-6.32,15.7v0.74c0,1.42,0.45,2.65,1.41,3.64c0.92,0.99,2.06,1.68,3.42,2.04h-15.17c1.86-0.44,3.72-1.32,5.63-2.66
		c1.91-1.36,3.34-3.23,4.32-5.68l22.46-55.59l-0.87-2.25c-0.44-0.87-0.94-1.73-1.56-2.61c-0.6-0.89-1.27-1.71-2.04-2.46
		c-0.77-0.77-1.51-1.41-2.25-1.93c-0.74-0.54-1.53-0.92-2.3-1.12h14.43l26.63,65.95c0.99,2.41,2.45,4.31,4.32,5.68
		c1.88,1.34,3.77,2.25,5.63,2.66h-23.55L391.83,80.2L391.83,80.2z M373.98,17.75l-15.94,39.23h31.74L373.98,17.75z"/>
</g>
<g>
	<path fill="#FBB044" d="M320.23,113.26c0,0.92-0.34,1.73-1.02,2.41c-0.69,0.69-1.47,1.02-2.4,1.02s-1.73-0.34-2.41-1.02
		s-1.02-1.47-1.02-2.41c0-0.99,0.34-1.81,0.97-2.4c0.64-0.59,1.46-0.92,2.46-0.92c0.92,0,1.73,0.3,2.4,0.92
		C319.86,111.45,320.23,112.27,320.23,113.26z"/>
</g>
<g>
	<path fill="#FBB044" d="M77.01,113.26c0,0.92-0.34,1.73-1.02,2.41c-0.69,0.69-1.47,1.02-2.4,1.02s-1.73-0.34-2.41-1.02
		c-0.69-0.69-1.02-1.47-1.02-2.41c0-0.99,0.34-1.81,0.97-2.4c0.64-0.59,1.46-0.92,2.46-0.92c0.92,0,1.73,0.3,2.4,0.92
		C76.66,111.45,77.01,112.27,77.01,113.26z"/>
</g>
</svg>
