<?xml version="1.0" encoding="utf-8"?>
<!-- Generator: Adobe Illustrator 25.2.1, SVG Export Plug-In . SVG Version: 6.00 Build 0)  -->
<svg version="1.1" id="Layer_1" xmlns="http://www.w3.org/2000/svg" xmlns:xlink="http://www.w3.org/1999/xlink" x="0px" y="0px"
	 viewBox="0 0 250 250" style="enable-background:new 0 0 250 250;" xml:space="preserve">
<style type="text/css">
	.st0{fill:#FBB040;}
	.st1{fill:#FFFFFF;}
</style>
<g>
	<path class="st0" d="M3.9,183.4c3.1-0.9,6-2.4,8.7-4.5s4.4-4.6,5.1-7.5V56.2c-0.7-2.9-2.4-5.4-5.1-7.5s-5.6-3.5-8.7-4.3h43.6
		c-3.1,0.8-5.9,2.2-8.6,4.3c-2.7,2.1-4.4,4.6-5.2,7.5v125.2h17.2c4.3,0,8.8-0.8,13.5-2.4c4.7-1.6,9.4-3.7,14-6.2s8.9-5.3,13-8.3
		s7.6-6,10.5-8.9l-4.6,27.8L3.9,183.4L3.9,183.4z"/>
	<path class="st0" d="M116.7,183.4c2.1-0.7,3.9-1.8,5.3-3.4c1.4-1.6,2.1-3.5,2.1-5.8c0-0.4,0-0.8,0-1.3s-0.1-1-0.4-1.5l-30-51.6
		l-35.4,51.6c-0.5,1.2-0.8,2.5-0.8,3.8c0,2,0.6,3.7,1.9,5.1c1.3,1.4,2.8,2.4,4.7,3.1H33.9c3.6-0.9,7.7-2.7,12.2-5.4s8.2-5.5,11-8.4
		l35.4-51.8L57.7,58c-1.2-1.5-2.7-2.9-4.5-4.4s-3.7-2.8-5.7-4s-4-2.3-6-3.2s-3.9-1.6-5.6-2h46.4c-2.1,0.7-3.9,1.7-5.4,3.2
		c-1.5,1.5-2.2,3.3-2.2,5.6c0,0.9,0.2,1.9,0.6,3l27.2,47l32-47c0.5-1.2,0.8-2.5,0.8-3.8c0-1.9-0.6-3.5-1.9-4.9
		c-1.3-1.4-2.8-2.4-4.7-3.1h30.2c-1.7,0.4-3.7,1.1-5.8,2s-4.3,2-6.4,3.2c-2.1,1.2-4.1,2.5-6,4s-3.5,2.9-5,4.4l-32,47l36.2,62.6
		c1.2,1.5,2.8,3,4.7,4.7s4,3.3,6.1,4.8s4.3,2.9,6.4,4c2.1,1.1,4.1,1.9,5.8,2.3L116.7,183.4L116.7,183.4z"/>
	<path class="st0" d="M163.9,183.8c-4.1,0-7.3-1-9.6-3c-2.4-1.5-4.3-3.5-5.7-6c-1.4-2.5-2.1-5.3-2.1-8.4c0-3.5,0.9-7,2.7-10.7
		s4.2-7.7,7.1-12.1l-5.6-7.6l-39.8-72l-0.2,105c0.8,2.9,2.6,5.8,5.3,8.7s5.6,4.8,8.7,5.7H94.9c3.1-0.9,6-2.8,8.7-5.7
		c2.7-2.9,4.4-5.8,5.1-8.7l0.2-108.8c-0.4-1.5-1-3-1.9-4.6s-1.9-3.1-3.2-4.5s-2.7-2.6-4.2-3.7s-3-1.8-4.5-2.2h21.8l48,87.2
		l56.8-87.2h25c-3.1,0.8-6,2.2-8.7,4.3s-4.5,4.6-5.3,7.5l-0.2,114.4c0.8,2.9,2.6,5.4,5.3,7.5s5.6,3.6,8.7,4.5h-43.8
		c3.1-0.9,6-2.4,8.7-4.5s4.5-4.6,5.3-7.5l0.2-115.2l-51,78.2c4.3,6.4,7.9,12.2,10.9,17.3s4.5,10,4.5,14.7c0,4.8-1.7,8.9-5,12.3
		C172.9,182.1,168.8,183.8,163.9,183.8z M158.7,178.8c2.8,0,5-1,6.7-2.9c1.7-1.9,2.5-4.2,2.5-6.9s-1-6-3.1-10s-4.6-8.5-7.5-13.4
		c-2.7,4.1-4.8,7.9-6.4,11.3c-1.6,3.4-2.4,6.6-2.4,9.5c0,3.3,1,6.2,2.9,8.7C153.3,177.6,155.7,178.8,158.7,178.8z"/>
</g>
<g>
	<path class="st1" d="M31.5,180.8c-0.1-0.3-0.2-0.5-0.4-0.7s-0.4-0.4-0.6-0.4h-9.7c-0.2,0.1-0.5,0.2-0.6,0.4s-0.3,0.5-0.4,0.7v-3.7
		c0.1,0.3,0.2,0.5,0.4,0.7c0.2,0.2,0.4,0.4,0.6,0.4h10.6v-1.4c0-0.4-0.1-0.7-0.2-1.1c-0.1-0.4-0.3-0.8-0.5-1.2
		c-0.2-0.4-0.5-0.8-0.7-1.1s-0.5-0.6-0.8-0.9l2.3,0.4L31.5,180.8L31.5,180.8z"/>
	<path class="st1" d="M19.9,159.8c0.1,0.3,0.2,0.5,0.4,0.7s0.4,0.4,0.6,0.4h5.8c0.9,0,1.7,0.1,2.3,0.3c0.6,0.2,1.2,0.5,1.6,0.8
		c0.4,0.4,0.7,0.8,0.9,1.3s0.3,1,0.3,1.6s-0.1,1.1-0.3,1.7s-0.5,0.9-0.9,1.3s-0.9,0.7-1.6,0.9c-0.6,0.2-1.4,0.3-2.4,0.3h-5.8
		c-0.3,0.1-0.5,0.2-0.6,0.4s-0.3,0.5-0.4,0.7v-3.7c0.1,0.3,0.2,0.5,0.4,0.7c0.2,0.2,0.4,0.4,0.6,0.4h5.8c0.8,0,1.5-0.1,2.1-0.2
		c0.6-0.2,1.1-0.4,1.5-0.7s0.7-0.6,0.9-1c0.2-0.4,0.3-0.8,0.3-1.3c0-0.5-0.1-0.9-0.3-1.3c-0.2-0.4-0.5-0.8-0.9-1.1
		c-0.4-0.3-0.9-0.6-1.5-0.8c-0.6-0.2-1.3-0.3-2.2-0.3h-5.8c-0.3,0.1-0.5,0.2-0.6,0.4s-0.3,0.5-0.4,0.7L19.9,159.8L19.9,159.8z"/>
	<path class="st1" d="M31.5,150.1c-0.1-0.2-0.1-0.3-0.3-0.4c-0.1-0.1-0.3-0.2-0.5-0.2c-0.1,0-0.2,0-0.2,0l-4.4,2.5l4.4,3
		c0.1,0,0.2,0.1,0.3,0.1c0.2,0,0.3-0.1,0.4-0.2c0.1-0.1,0.2-0.2,0.3-0.4v2.6c0-0.2-0.1-0.3-0.2-0.5c-0.1-0.2-0.2-0.4-0.3-0.5
		s-0.2-0.4-0.3-0.5c-0.1-0.2-0.2-0.3-0.4-0.4l-4.4-3l-5.1,2.9c-0.1,0.1-0.2,0.2-0.4,0.4c-0.1,0.1-0.2,0.3-0.3,0.5s-0.2,0.3-0.3,0.5
		s-0.1,0.3-0.2,0.5V153c0.1,0.2,0.1,0.3,0.3,0.5c0.1,0.1,0.3,0.2,0.5,0.2c0.1,0,0.2,0,0.3-0.1l4-2.3l-4-2.7c-0.1,0-0.2-0.1-0.3-0.1
		c-0.2,0-0.3,0.1-0.4,0.2c-0.1,0.1-0.2,0.2-0.3,0.4v-2.6c0,0.1,0.1,0.3,0.2,0.5c0.1,0.2,0.2,0.4,0.3,0.5s0.2,0.4,0.3,0.5
		c0.1,0.2,0.2,0.3,0.4,0.4l4,2.7l5.3-3.1c0.1-0.1,0.3-0.2,0.4-0.4c0.1-0.2,0.3-0.3,0.4-0.5c0.1-0.2,0.2-0.4,0.3-0.5s0.2-0.3,0.2-0.5
		V150.1z"/>
	<path class="st1" d="M30.5,140.8c0.3-0.1,0.5-0.2,0.6-0.4c0.2-0.2,0.3-0.5,0.4-0.7v3.7c-0.1-0.3-0.2-0.5-0.4-0.7s-0.4-0.4-0.6-0.4
		h-9.7c-0.3,0.1-0.5,0.2-0.6,0.4c-0.2,0.2-0.3,0.5-0.4,0.7v-3.7c0.1,0.3,0.2,0.5,0.4,0.7c0.2,0.2,0.4,0.4,0.6,0.4H30.5z"/>
	<path class="st1" d="M31.7,131c0,0.3-0.1,0.6-0.2,0.8c-0.1,0.2-0.3,0.4-0.5,0.5c-0.2,0.1-0.5,0.2-0.7,0.2c-0.3,0-0.6-0.1-0.9-0.2
		s-0.7-0.4-1-0.6l-0.8,0.5l-6.1,3.4h8.9c0.2-0.1,0.5-0.2,0.7-0.4s0.4-0.5,0.5-0.7v2.5c-0.1-0.3-0.2-0.5-0.5-0.7s-0.5-0.4-0.7-0.4
		h-9.3c-0.1,0-0.2,0.1-0.4,0.2s-0.3,0.2-0.4,0.3c-0.1,0.1-0.2,0.2-0.3,0.4s-0.1,0.3-0.2,0.4v-1.8l7.4-4.1l-7.4-4.8V124
		c0.1,0.3,0.2,0.5,0.4,0.7s0.4,0.4,0.6,0.4h9.7c0.3-0.1,0.5-0.2,0.6-0.4c0.2-0.2,0.3-0.5,0.4-0.7v3.7c-0.1-0.3-0.2-0.5-0.4-0.7
		s-0.4-0.4-0.6-0.4h-9.8l6.6,4.3c0.6-0.4,1.2-0.7,1.6-0.9s0.9-0.4,1.3-0.4s0.8,0.1,1,0.4C31.6,130.2,31.7,130.6,31.7,131z
		 M31.3,131.4c0-0.2-0.1-0.4-0.2-0.6c-0.2-0.1-0.4-0.2-0.6-0.2s-0.5,0.1-0.8,0.3c-0.3,0.2-0.7,0.4-1.1,0.6c0.4,0.2,0.7,0.4,1,0.5
		c0.3,0.1,0.5,0.2,0.8,0.2c0.3,0,0.6-0.1,0.8-0.3C31.2,131.8,31.3,131.6,31.3,131.4z"/>
	<path class="st1" d="M31.5,113.3c-0.1-0.2-0.2-0.4-0.3-0.5s-0.4-0.2-0.6-0.2h-0.1l-2.5,1v5.1l2.5,1h0.1c0.2,0,0.4-0.1,0.6-0.2
		c0.2-0.2,0.3-0.3,0.3-0.5v2.4c-0.1-0.3-0.2-0.6-0.4-0.9c-0.2-0.3-0.5-0.5-0.9-0.7l-8.8-3.5l-0.4,0.1c-0.1,0.1-0.3,0.2-0.4,0.2
		c-0.1,0.1-0.3,0.2-0.4,0.3s-0.2,0.2-0.3,0.3c-0.1,0.1-0.1,0.2-0.2,0.4v-2.3l10.4-4.2c0.4-0.2,0.7-0.4,0.9-0.7s0.4-0.6,0.4-0.9
		L31.5,113.3L31.5,113.3z M21.7,116.1l6.2,2.5v-5L21.7,116.1z"/>
</g>
</svg>
